<?xml version="1.0" encoding="utf-8"?>
<!-- Generator: Adobe Illustrator 20.1.0, SVG Export Plug-In . SVG Version: 6.00 Build 0)  -->
<svg version="1.1" id="Layer_1" xmlns="http://www.w3.org/2000/svg" xmlns:xlink="http://www.w3.org/1999/xlink" x="0px" y="0px"
	 viewBox="0 0 75.8 77.8" style="enable-background:new 0 0 75.8 77.8;" xml:space="preserve">
<g>
	<path d="M37.8,75.8c20.7,0,37.5-16.8,37.5-37.5S58.4,0.8,37.8,0.8S0.3,17.5,0.3,38.3S17,75.8,37.8,75.8z M37.8,3.8
		c19,0,34.5,15.5,34.5,34.5S56.8,72.8,37.8,72.8S3.3,57.3,3.3,38.3S18.8,3.8,37.8,3.8z"/>
	<path d="M20.8,40.3h15v15c0,0.8,0.7,1.5,1.5,1.5s1.5-0.7,1.5-1.5v-15h16c0.8,0,1.5-0.7,1.5-1.5s-0.7-1.5-1.5-1.5h-16v-16
		c0-0.8-0.7-1.5-1.5-1.5s-1.5,0.7-1.5,1.5v16h-15c-0.8,0-1.5,0.7-1.5,1.5S20,40.3,20.8,40.3z"/>
</g>
</svg>
