<?xml version="1.0" encoding="UTF-8" standalone="no"?>
<!-- Generator: Adobe Illustrator 22.0.1, SVG Export Plug-In . SVG Version: 6.00 Build 0)  -->

<svg
   xmlns:dc="http://purl.org/dc/elements/1.1/"
   xmlns:cc="http://creativecommons.org/ns#"
   xmlns:rdf="http://www.w3.org/1999/02/22-rdf-syntax-ns#"
   xmlns:svg="http://www.w3.org/2000/svg"
   xmlns="http://www.w3.org/2000/svg"
   xmlns:sodipodi="http://sodipodi.sourceforge.net/DTD/sodipodi-0.dtd"
   xmlns:inkscape="http://www.inkscape.org/namespaces/inkscape"
   version="1.1"
   id="Layer_1"
   x="0px"
   y="0px"
   viewBox="0 0 80 80"
   style="enable-background:new 0 0 80 80;"
   xml:space="preserve"
   sodipodi:docname="App_Icon_Eule_Stift_single_Items_Icon_scaled.svg"
   inkscape:export-filename="/media/data/coding/Android/self/DeepThought/DeepThoughtAndroidApp/src/main/res/drawable-mdpi/ic_tab_items.png"
   inkscape:export-xdpi="28.799999"
   inkscape:export-ydpi="28.799999"
   inkscape:version="0.92.2 5c3e80d, 2017-08-06"><metadata
     id="metadata17"><rdf:RDF><cc:Work
         rdf:about=""><dc:format>image/svg+xml</dc:format><dc:type
           rdf:resource="http://purl.org/dc/dcmitype/StillImage" /><dc:title></dc:title></cc:Work></rdf:RDF></metadata><defs
     id="defs15" /><sodipodi:namedview
     pagecolor="#ffffff"
     bordercolor="#666666"
     borderopacity="1"
     objecttolerance="10"
     gridtolerance="10"
     guidetolerance="10"
     inkscape:pageopacity="0"
     inkscape:pageshadow="2"
     inkscape:window-width="1920"
     inkscape:window-height="1008"
     id="namedview13"
     showgrid="false"
     inkscape:measure-start="0,-0.119849"
     inkscape:measure-end="39.8833,0"
     inkscape:zoom="8.34386"
     inkscape:cx="23.622117"
     inkscape:cy="41.730563"
     inkscape:window-x="0"
     inkscape:window-y="26"
     inkscape:window-maximized="1"
     inkscape:current-layer="g10" /><g
     id="g10"><g
       id="g838"
       transform="matrix(1.125,0,0,0.98842042,10.591069,0.00231592)"><path
         id="path2"
         d="m 34.8,15.5 v -1.8 h -2.2 c -1,0 -1.6,0.6 -1.6,1.5 v 2 h 1.9 c 0.9,0 1.9,-0.7 1.9,-1.7 z"
         inkscape:connector-curvature="0" /><path
         inkscape:connector-curvature="0"
         id="path4"
         d="m 20.4,13.7 h -2 v 1.8 c 0,1 0.8,1.8 1.8,1.8 h 1.9 v -2 c 0,-1.1 -0.7,-1.6 -1.7,-1.6 z" /><path
         inkscape:connector-curvature="0"
         id="path6"
         d="M 41.3,14 C 40.7,6.2 34.3,0.2 26.7,0.2 c -7.9,0 -14.4,6.6 -14.4,14.7 0,0.2 0,0.4 0.1,0.6 0,0.1 0,0.2 0,0.4 v 38.3 c 0,1 0.1,4.6 3.6,6 1.9,0.8 3.8,0.8 5.3,0.1 1.4,1.2 3.2,2 5.2,2 h 0.2 c 2,0 3.8,-0.7 5.3,-2 0.7,0.3 1.4,0.4 2.2,0.4 1,0 2.1,-0.2 3.1,-0.6 3.8,-1.5 3.9,-5.5 3.9,-5.9 z M 29.6,57.7 c -0.8,0.7 -1.9,1.1 -3,1.1 0,0 0,0 -0.1,0 -1,0 -2,-0.4 -2.8,-1.1 0.1,-0.2 0.2,-0.5 0.2,-0.9 V 29.2 c 0.6,0.1 1.2,0.2 1.8,0.3 0.8,0.1 1.1,0.1 1.7,0 0.7,0 1.3,-0.1 2,-0.3 v 27.9 c 0.2,0.2 0.2,0.4 0.2,0.6 z m -3,-54.1 c 3,0 5.8,1.2 7.9,3.4 C 34,6.9 33.5,6.9 33,6.9 c -2.5,0 -4.9,1.2 -6.4,3.2 -1.5,-2 -3.8,-3.2 -6.4,-3.2 -0.5,0 -1,0 -1.5,0.1 2.1,-2.2 4.9,-3.4 7.9,-3.4 z m -6.3,24.5 v 28.8 c 0,0.1 -0.1,0.1 -0.1,0.1 -0.5,0.4 -1.7,0.5 -3.1,0 -1.5,-0.6 -1.6,-2.3 -1.6,-2.8 L 15.4,24.3 c 1.4,1.6 3.1,2.9 4.9,3.8 z M 15.5,14.8 c 0,-2.6 2.2,-4.7 4.8,-4.7 2.6,0 4.8,2.2 4.8,4.7 v 6.3 h 3.1 v -6.3 c 0,-2.5 2.2,-4.7 4.6,-4.7 2.6,0 4.7,2.2 4.7,4.7 0,6.2 -5,11.3 -11.1,11.3 -5.9,0 -10.9,-5 -10.9,-11.3 z m 17.3,42 V 28 c 1.9,-0.9 3.5,-2.2 4.8,-3.9 v 29.8 0.2 c 0,0.5 -0.1,2.1 -1.6,2.8 -1.4,0.5 -2.6,0.4 -3.1,0 -0.1,0 -0.1,0 -0.1,-0.1 z" /></g><path
       d="m 53.164324,62.243047 c -1.0125,-0.569742 -2.475,-0.284871 -3.15,0.569742 l -3.2625,4.083149 c -4.05,0.569742 -8.2125,0.569742 -12.375,0 l -3.2625,-4.083149 c -0.675,-0.854613 -2.1375,-1.044527 -3.15,-0.569742 -0.5625,0.284871 -0.9,0.759656 -1.0125,1.23444 -0.1125,0.474785 0,0.94957 0.3375,1.424355 l 3.6,4.273064 6.3,7.311686 h -24.525 c -0.9,0 -1.575,0.569742 -1.575,1.329398 v 0.949569 c 0,0.664699 0.675,1.234441 1.575,1.234441 h 27.3375 1.0125 l 0.45,-0.569742 8.6625,-9.970482 c 0.1125,-0.09496 0.1125,-0.09496 0.1125,-0.189914 l 3.4875,-4.273063 c 0.3375,-0.474785 0.45,-0.94957 0.3375,-1.424355 0,-0.664698 -0.3375,-1.044526 -0.9,-1.329397 z m -9,8.261256 -3.6,4.178107 -3.6,-4.178107 c 2.3625,0.189914 4.8375,0.189914 7.2,0 z"
       id="path8"
       inkscape:connector-curvature="0"
       style="stroke-width:1.03356946" /></g></svg>