<?xml version="1.0" encoding="utf-8"?>
<!-- Generator: Adobe Illustrator 22.0.1, SVG Export Plug-In . SVG Version: 6.00 Build 0)  -->
<svg version="1.1" id="Layer_1" xmlns="http://www.w3.org/2000/svg" xmlns:xlink="http://www.w3.org/1999/xlink" x="0px" y="0px"
	 viewBox="0 0 80 80" style="enable-background:new 0 0 80 80;" xml:space="preserve">
<g>
	<path d="M34.8,15.5l0-1.8h-2.2c-1,0-1.6,0.6-1.6,1.5v2h1.9C33.8,17.2,34.8,16.5,34.8,15.5z"/>
	<path d="M20.4,13.7h-2v1.8c0,1,0.8,1.8,1.8,1.8h1.9v-2C22.1,14.2,21.4,13.7,20.4,13.7z"/>
	<path d="M41.3,14C40.7,6.2,34.3,0.2,26.7,0.2c-7.9,0-14.4,6.6-14.4,14.7c0,0.2,0,0.4,0.1,0.6c0,0.1,0,0.2,0,0.4v38.3
		c0,1,0.1,4.6,3.6,6c1.9,0.8,3.8,0.8,5.3,0.1c1.4,1.2,3.2,2,5.2,2h0.2c2,0,3.8-0.7,5.3-2c0.7,0.3,1.4,0.4,2.2,0.4
		c1,0,2.1-0.2,3.1-0.6c3.8-1.5,3.9-5.5,3.9-5.9L41.3,14z M29.6,57.7c-0.8,0.7-1.9,1.1-3,1.1c0,0,0,0-0.1,0c-1,0-2-0.4-2.8-1.1
		c0.1-0.2,0.2-0.5,0.2-0.9V29.2c0.6,0.1,1.2,0.2,1.8,0.3c0.8,0.1,1.1,0.1,1.7,0c0.7,0,1.3-0.1,2-0.3l0,27.9
		C29.6,57.3,29.6,57.5,29.6,57.7z M26.6,3.6c3,0,5.8,1.2,7.9,3.4c-0.5-0.1-1-0.1-1.5-0.1c-2.5,0-4.9,1.2-6.4,3.2
		c-1.5-2-3.8-3.2-6.4-3.2c-0.5,0-1,0-1.5,0.1C20.8,4.8,23.6,3.6,26.6,3.6z M20.3,28.1v28.8c0,0.1-0.1,0.1-0.1,0.1
		c-0.5,0.4-1.7,0.5-3.1,0c-1.5-0.6-1.6-2.3-1.6-2.8l-0.1-29.9C16.8,25.9,18.5,27.2,20.3,28.1z M15.5,14.8c0-2.6,2.2-4.7,4.8-4.7
		c2.6,0,4.8,2.2,4.8,4.7v6.3h3.1l0-6.3c0-2.5,2.2-4.7,4.6-4.7c2.6,0,4.7,2.2,4.7,4.7c0,6.2-5,11.3-11.1,11.3
		C20.5,26.1,15.5,21.1,15.5,14.8z M32.8,56.8l0-28.8c1.9-0.9,3.5-2.2,4.8-3.9l0,29.8l0,0.2c0,0.5-0.1,2.1-1.6,2.8
		c-1.4,0.5-2.6,0.4-3.1,0C32.8,56.9,32.8,56.9,32.8,56.8z"/>
	<path d="M37.5,61.3c-0.9-0.6-2.2-0.3-2.8,0.6l-2.9,4.3c-3.6,0.6-7.3,0.6-11,0l-2.9-4.3c-0.6-0.9-1.9-1.1-2.8-0.6
		c-0.5,0.3-0.8,0.8-0.9,1.3c-0.1,0.5,0,1,0.3,1.5l3.2,4.5l5.6,7.7H1.5c-0.8,0-1.4,0.6-1.4,1.4l0,1c0,0.7,0.6,1.3,1.4,1.3h24.3l0.9,0
		l0.4-0.6l7.7-10.5c0.1-0.1,0.1-0.1,0.1-0.2l3.1-4.5c0.3-0.5,0.4-1,0.3-1.5C38.3,62,38,61.6,37.5,61.3z M29.5,70l-3.2,4.4L23.1,70
		C25.2,70.2,27.4,70.2,29.5,70z"/>
</g>
</svg>
