<?xml version="1.0" encoding="UTF-8" standalone="no"?>
<!-- Generator: Adobe Illustrator 20.1.0, SVG Export Plug-In . SVG Version: 6.00 Build 0)  -->

<svg
   xmlns:dc="http://purl.org/dc/elements/1.1/"
   xmlns:cc="http://creativecommons.org/ns#"
   xmlns:rdf="http://www.w3.org/1999/02/22-rdf-syntax-ns#"
   xmlns:svg="http://www.w3.org/2000/svg"
   xmlns="http://www.w3.org/2000/svg"
   xmlns:sodipodi="http://sodipodi.sourceforge.net/DTD/sodipodi-0.dtd"
   xmlns:inkscape="http://www.inkscape.org/namespaces/inkscape"
   version="1.1"
   id="Layer_1"
   x="0px"
   y="0px"
   viewBox="0 0 500 500"
   style="enable-background:new 0 0 500 500;"
   xml:space="preserve"
   sodipodi:docname="AppIconWithoutBackground.svg"
   inkscape:export-filename="/media/data/coding/Android/self/test/DeepThought/DeepThoughtAndroidApp/src/main/res/drawable-xxxhdpi/app_icon_without_background.png"
   inkscape:export-xdpi="36.860001"
   inkscape:export-ydpi="36.860001"
   inkscape:version="0.92.2 5c3e80d, 2017-08-06"><metadata
     id="metadata17"><rdf:RDF><cc:Work
         rdf:about=""><dc:format>image/svg+xml</dc:format><dc:type
           rdf:resource="http://purl.org/dc/dcmitype/StillImage" /><dc:title></dc:title></cc:Work></rdf:RDF></metadata><defs
     id="defs15" /><sodipodi:namedview
     pagecolor="#ffffff"
     bordercolor="#666666"
     borderopacity="1"
     objecttolerance="10"
     gridtolerance="10"
     guidetolerance="10"
     inkscape:pageopacity="0"
     inkscape:pageshadow="2"
     inkscape:window-width="1920"
     inkscape:window-height="1008"
     id="namedview13"
     showgrid="false"
     inkscape:pagecheckerboard="true"
     inkscape:zoom="0.944"
     inkscape:cx="386.95498"
     inkscape:cy="259.26838"
     inkscape:window-x="0"
     inkscape:window-y="26"
     inkscape:window-maximized="1"
     inkscape:current-layer="Layer_1" /><style
     type="text/css"
     id="style2">
	.st0{fill:#FFFFFF;}
</style><g
     id="g10"
     transform="matrix(0.666,0,0,0.666,133.9495,83.5)"><path
       class="st0"
       d="m 11.4,500 h 161.9 c 96.6,0 175.2,-78.6 175.2,-175.2 V 163.5 C 343.1,72.5 266.5,0 174,0 78.1,0 0,78.1 0,174 c 0,4.1 0.2,8.1 0.5,12.2 V 500 H 11 v 0 c 0.1,0 0.2,0 0.4,0 z M 327.5,324.8 c 0,85 -69.2,154.2 -154.2,154.2 H 94.1 c 48.4,-26.2 83.1,-74.5 90.6,-131.3 61.9,-3.7 115.1,-39.9 142.9,-91.8 v 68.9 z M 21.5,478.6 V 257.7 c 28,50.9 80.8,86.4 142,90.1 -10.6,70.7 -69.6,125.9 -142,130.8 z M 174,21 C 231.1,21 280.9,52.4 307.2,98.8 292.5,88.7 274.7,82.7 255.5,82.7 219.9,82.7 189,103.2 174,133.1 158.9,103.3 128.1,82.7 92.5,82.7 c -19.2,0 -37,6 -51.7,16.1 C 67.2,52.4 117,21 174,21 Z m -81.5,82.7 c 38.8,0 71.5,31.6 71.5,70.3 v 68.6 h 21 V 174 h 0.2 c 0,-38.8 31.6,-70.3 70.3,-70.3 38.8,0 71.5,31.6 71.5,70.3 0,84.4 -68.7,153 -153,153 C 89.7,327 21,258.4 21,174 21,135.3 53.7,103.7 92.5,103.7 Z"
       id="path4"
       inkscape:connector-curvature="0"
       style="fill:#ffffff" /><path
       class="st0"
       d="m 276.6,181.6 v -26.1 h -26.1 c -11.8,0 -21.4,9.6 -21.4,21.4 V 203 h 26.1 c 11.8,0 21.4,-9.6 21.4,-21.4 z"
       id="path6"
       inkscape:connector-curvature="0"
       style="fill:#ffffff" /><path
       class="st0"
       d="M 92.9,203 H 119 v -26.1 c 0,-11.8 -9.6,-21.4 -21.4,-21.4 H 71.5 v 26.1 c 0,11.8 9.6,21.4 21.4,21.4 z"
       id="path8"
       inkscape:connector-curvature="0"
       style="fill:#ffffff" /></g></svg>