<?xml version="1.0" encoding="utf-8"?>
<!-- Generator: Adobe Illustrator 20.1.0, SVG Export Plug-In . SVG Version: 6.00 Build 0)  -->
<svg version="1.1" id="Layer_1" xmlns="http://www.w3.org/2000/svg" xmlns:xlink="http://www.w3.org/1999/xlink" x="0px" y="0px"
	 viewBox="0 0 128 128" style="enable-background:new 0 0 128 128;" xml:space="preserve">
<g>
	<path d="M63.9,124.7c-11.9,0-21.6-9.7-21.6-21.6c0,0,0,0,0-0.1V76.3c0-3.3-1.1-6.5-3-9.2L1.9,16l-0.3-0.5c-3-4.7-1.5-11,3.2-14
		C6.4,0.5,8.2,0,10.1,0h107.6c5.6,0,10.1,4.5,10.1,10.1c0,1.9-0.5,3.8-1.5,5.4L126,16L88.5,67.2c-2,2.7-3,5.9-3,9.2V103
		c0,11.8-9.4,21.3-21.1,21.7H63.9z M20.6,15.5L51.8,58c3.9,5.3,6,11.7,6,18.3V103c0,3.4,2.7,6.1,6.1,6.1c0,0,0.1,0,0.1,0
		c3.3-0.1,6-2.8,6-6.1V76.3c0-6.6,2.1-13,6-18.3l31.1-42.5H20.6z"/>
</g>
</svg>
