<?xml version="1.0" encoding="utf-8"?>
<!-- Generator: Adobe Illustrator 20.1.0, SVG Export Plug-In . SVG Version: 6.00 Build 0)  -->
<svg version="1.1"
	 id="Layer_1" xmlns:cc="http://creativecommons.org/ns#" xmlns:dc="http://purl.org/dc/elements/1.1/" xmlns:inkscape="http://www.inkscape.org/namespaces/inkscape" xmlns:rdf="http://www.w3.org/1999/02/22-rdf-syntax-ns#" xmlns:sodipodi="http://sodipodi.sourceforge.net/DTD/sodipodi-0.dtd" xmlns:svg="http://www.w3.org/2000/svg"
	 xmlns="http://www.w3.org/2000/svg" xmlns:xlink="http://www.w3.org/1999/xlink" x="0px" y="0px" viewBox="0 0 360.5 450.6"
	 style="enable-background:new 0 0 360.5 450.6;" xml:space="preserve">
<style type="text/css">
	.st0{fill:#999999;}
</style>
<g>
	<g>
		<path class="st0" d="M323.6,125.7c0-3.1-2.3-5.7-5.5-6.1c-0.1,0-0.2,0-0.4,0l-99.9,0c-10.3,0-20.8,4.5-29.5,12.7
			c-1,0.9-1.8,2.1-2.6,3.4c-0.5,0.7-1,1.5-1.5,2.2l-3,3.9l-3-3.9c-0.5-0.7-1-1.4-1.5-2.2c-0.9-1.3-1.7-2.5-2.6-3.4
			c-8.7-8.2-19.2-12.7-29.5-12.7H44.7c-0.3,0-0.5,0-0.7,0c-1.4,0.1-3.4,0.1-5.2,0.1l0,0.8c0,1.8-0.1,3.7-0.1,5.1v175.8
			c0,1.1,0,2.4,0,3.7c0,0.7,0,1.4,0,2.2l0.7,0c1.9,0.1,3.9,0.1,5.4,0.1h99.8c8.5,0,16.2,2.1,22.1,6c2,1.3,5.5,4,8.9,6.5
			c2,1.5,4,3,5.6,4.2c1.6-1.2,3.6-2.7,5.5-4.1c3.5-2.6,7-5.3,9-6.6c5.9-3.9,13.6-6,22.1-6h99.8c1.5,0,3.5,0,5.3-0.1l0.7,0l0-6V125.7
			z M175.3,160.6l0,0.1v143.9l-5.5-3c-7.5-4.1-16.3-6.3-25.4-6.3H50.8V131.7h93.7c6.9,0,15,3.6,21.2,9.4c5.8,5.5,9.7,13,9.7,18.7
			C175.3,160.2,175.3,160.4,175.3,160.6z M311.5,295.4h-93.7c-9.1,0-17.8,2.2-25.4,6.3l-5.5,3V160.8c0-0.3,0-0.5,0-0.7
			c0-5.9,3.9-13.4,9.7-18.9c6.1-5.8,14.3-9.4,21.2-9.4h93.7V295.4z"/>
	</g>
</g>
<g>
	<rect x="74.5" y="157.1" class="st0" width="64.9" height="11.1"/>
	<rect x="74.5" y="175.7" class="st0" width="64.9" height="11.1"/>
	<rect x="74.5" y="194.2" class="st0" width="64.9" height="11.1"/>
</g>
<g>
	<rect x="221.5" y="242.9" class="st0" width="64.9" height="11.1"/>
	<rect x="221.5" y="224.4" class="st0" width="64.9" height="11.1"/>
	<rect x="221.5" y="261.5" class="st0" width="64.9" height="11.1"/>
</g>
<g>
	<path class="st0" d="M285.8,208.4h-64.5v-56.1h64.5V208.4z M230.6,199.1h45.9v-37.6h-45.9V199.1z"/>
</g>
</svg>
