<?xml version="1.0" encoding="UTF-8" standalone="no"?>
<!-- Generator: Adobe Illustrator 20.1.0, SVG Export Plug-In . SVG Version: 6.00 Build 0)  -->

<svg
   xmlns:dc="http://purl.org/dc/elements/1.1/"
   xmlns:cc="http://creativecommons.org/ns#"
   xmlns:rdf="http://www.w3.org/1999/02/22-rdf-syntax-ns#"
   xmlns:svg="http://www.w3.org/2000/svg"
   xmlns="http://www.w3.org/2000/svg"
   xmlns:sodipodi="http://sodipodi.sourceforge.net/DTD/sodipodi-0.dtd"
   xmlns:inkscape="http://www.inkscape.org/namespaces/inkscape"
   version="1.1"
   id="Layer_1"
   x="0px"
   y="0px"
   viewBox="0 0 425 315"
   xml:space="preserve"
   sodipodi:docname="Lesemodus_scaled.svg"
   width="425"
   height="315"
   inkscape:version="0.92.2 5c3e80d, 2017-08-06"><metadata
     id="metadata35"><rdf:RDF><cc:Work
         rdf:about=""><dc:format>image/svg+xml</dc:format><dc:type
           rdf:resource="http://purl.org/dc/dcmitype/StillImage" /><dc:title></dc:title></cc:Work></rdf:RDF></metadata><defs
     id="defs33" /><sodipodi:namedview
     pagecolor="#ffffff"
     bordercolor="#666666"
     borderopacity="1"
     objecttolerance="10"
     gridtolerance="10"
     guidetolerance="10"
     inkscape:pageopacity="0"
     inkscape:pageshadow="2"
     inkscape:window-width="1920"
     inkscape:window-height="1008"
     id="namedview31"
     showgrid="false"
     inkscape:pagecheckerboard="true"
     inkscape:zoom="1.4813777"
     inkscape:cx="182.32309"
     inkscape:cy="114.97205"
     inkscape:window-x="0"
     inkscape:window-y="26"
     inkscape:window-maximized="1"
     inkscape:current-layer="Layer_1" /><style
     type="text/css"
     id="style2">
	.st0{fill:#999999;}
</style><g
     id="g855"
     transform="matrix(1.25,0,0,1.25,-13.9375,-113.8125)"
     style="fill:#ffffff;fill-opacity:1"><g
       id="g8"
       style="fill:#ffffff;fill-opacity:1"><g
         id="g6"
         style="fill:#ffffff;fill-opacity:1"><path
           style="fill:#ffffff;fill-opacity:1"
           inkscape:connector-curvature="0"
           id="path4"
           d="m 323.6,125.7 c 0,-3.1 -2.3,-5.7 -5.5,-6.1 -0.1,0 -0.2,0 -0.4,0 h -99.9 c -10.3,0 -20.8,4.5 -29.5,12.7 -1,0.9 -1.8,2.1 -2.6,3.4 -0.5,0.7 -1,1.5 -1.5,2.2 l -3,3.9 -3,-3.9 c -0.5,-0.7 -1,-1.4 -1.5,-2.2 -0.9,-1.3 -1.7,-2.5 -2.6,-3.4 -8.7,-8.2 -19.2,-12.7 -29.5,-12.7 H 44.7 c -0.3,0 -0.5,0 -0.7,0 -1.4,0.1 -3.4,0.1 -5.2,0.1 v 0.8 c 0,1.8 -0.1,3.7 -0.1,5.1 v 175.8 c 0,1.1 0,2.4 0,3.7 0,0.7 0,1.4 0,2.2 h 0.7 c 1.9,0.1 3.9,0.1 5.4,0.1 h 99.8 c 8.5,0 16.2,2.1 22.1,6 2,1.3 5.5,4 8.9,6.5 2,1.5 4,3 5.6,4.2 1.6,-1.2 3.6,-2.7 5.5,-4.1 3.5,-2.6 7,-5.3 9,-6.6 5.9,-3.9 13.6,-6 22.1,-6 h 99.8 c 1.5,0 3.5,0 5.3,-0.1 h 0.7 v -6 z m -148.3,34.9 v 0.1 143.9 l -5.5,-3 c -7.5,-4.1 -16.3,-6.3 -25.4,-6.3 H 50.8 V 131.7 h 93.7 c 6.9,0 15,3.6 21.2,9.4 5.8,5.5 9.7,13 9.7,18.7 -0.1,0.4 -0.1,0.6 -0.1,0.8 z m 136.2,134.8 h -93.7 c -9.1,0 -17.8,2.2 -25.4,6.3 l -5.5,3 V 160.8 c 0,-0.3 0,-0.5 0,-0.7 0,-5.9 3.9,-13.4 9.7,-18.9 6.1,-5.8 14.3,-9.4 21.2,-9.4 h 93.7 z"
           class="st0" /></g></g><g
       id="g16"
       style="fill:#ffffff;fill-opacity:1"><rect
         style="fill:#ffffff;fill-opacity:1"
         id="rect10"
         height="11.1"
         width="64.900002"
         class="st0"
         y="157.10001"
         x="74.5" /><rect
         style="fill:#ffffff;fill-opacity:1"
         id="rect12"
         height="11.1"
         width="64.900002"
         class="st0"
         y="175.7"
         x="74.5" /><rect
         style="fill:#ffffff;fill-opacity:1"
         id="rect14"
         height="11.1"
         width="64.900002"
         class="st0"
         y="194.2"
         x="74.5" /></g><g
       id="g24"
       style="fill:#ffffff;fill-opacity:1"><rect
         style="fill:#ffffff;fill-opacity:1"
         id="rect18"
         height="11.1"
         width="64.900002"
         class="st0"
         y="242.89999"
         x="221.5" /><rect
         style="fill:#ffffff;fill-opacity:1"
         id="rect20"
         height="11.1"
         width="64.900002"
         class="st0"
         y="224.39999"
         x="221.5" /><rect
         style="fill:#ffffff;fill-opacity:1"
         id="rect22"
         height="11.1"
         width="64.900002"
         class="st0"
         y="261.5"
         x="221.5" /></g><g
       id="g28"
       style="fill:#ffffff;fill-opacity:1"><path
         style="fill:#ffffff;fill-opacity:1"
         inkscape:connector-curvature="0"
         id="path26"
         d="m 285.8,208.4 h -64.5 v -56.1 h 64.5 z m -55.2,-9.3 h 45.9 v -37.6 h -45.9 z"
         class="st0" /></g></g></svg>