<?xml version="1.0" encoding="utf-8"?>
<!-- Generator: Adobe Illustrator 20.1.0, SVG Export Plug-In . SVG Version: 6.00 Build 0)  -->
<svg version="1.1" id="Layer_1" xmlns="http://www.w3.org/2000/svg" xmlns:xlink="http://www.w3.org/1999/xlink" x="0px" y="0px"
	 viewBox="0 0 56.3 69" style="enable-background:new 0 0 56.3 69;" xml:space="preserve">
<g>
	<path d="M36.2,1.7c-0.6-0.6-1.4-0.9-2.1-0.9H3.5c-1.7,0-3,1.3-3,3v61.1c0,0.9,0.2,1.6,0.8,2.2C1.9,67.7,2.6,68,3.4,68h48.9
		c1.7,0,3-1.3,3-3V22.2c0-0.8-0.3-1.5-0.9-2.1L36.2,1.7z M37,11.1l8.1,8.1H37V11.1z M49.4,62h-43L6.5,6.8h24.6v15.4c0,1.7,1.3,3,3,3
		h15.3V62z"/>
	<rect x="15.7" y="36.5" width="24.4" height="6"/>
	<rect x="15.7" y="47.7" width="15.3" height="6"/>
</g>
</svg>
