<?xml version="1.0" encoding="UTF-8" standalone="no"?>
<!-- Generator: Adobe Illustrator 22.0.1, SVG Export Plug-In . SVG Version: 6.00 Build 0)  -->

<svg
   xmlns:dc="http://purl.org/dc/elements/1.1/"
   xmlns:cc="http://creativecommons.org/ns#"
   xmlns:rdf="http://www.w3.org/1999/02/22-rdf-syntax-ns#"
   xmlns:svg="http://www.w3.org/2000/svg"
   xmlns="http://www.w3.org/2000/svg"
   xmlns:sodipodi="http://sodipodi.sourceforge.net/DTD/sodipodi-0.dtd"
   xmlns:inkscape="http://www.inkscape.org/namespaces/inkscape"
   version="1.1"
   id="Layer_1"
   x="0px"
   y="0px"
   viewBox="0 0 80 80"
   style="enable-background:new 0 0 80 80;"
   xml:space="preserve"
   sodipodi:docname="Saved.svg"
   inkscape:export-filename="/media/data/coding/Android/self/DeepThought/DeepThoughtAndroidApp/src/main/res/drawable-mdpi/ic_tab_read_later_articles.png"
   inkscape:export-xdpi="28.799999"
   inkscape:export-ydpi="28.799999"
   inkscape:version="0.92.2 5c3e80d, 2017-08-06"><metadata
     id="metadata9"><rdf:RDF><cc:Work
         rdf:about=""><dc:format>image/svg+xml</dc:format><dc:type
           rdf:resource="http://purl.org/dc/dcmitype/StillImage" /></cc:Work></rdf:RDF></metadata><defs
     id="defs7" /><sodipodi:namedview
     pagecolor="#ffffff"
     bordercolor="#666666"
     borderopacity="1"
     objecttolerance="10"
     gridtolerance="10"
     guidetolerance="10"
     inkscape:pageopacity="0"
     inkscape:pageshadow="2"
     inkscape:window-width="1920"
     inkscape:window-height="1008"
     id="namedview5"
     showgrid="false"
     inkscape:zoom="2.95"
     inkscape:cx="40"
     inkscape:cy="40"
     inkscape:window-x="0"
     inkscape:window-y="26"
     inkscape:window-maximized="1"
     inkscape:current-layer="Layer_1" /><path
     d="M 75.7,50.6 64.9,25.5 C 62.5,19.1 56.2,14.7 49.3,14.7 c -1.4,0 -2.6,1.3 -2.6,2.6 0,1.4 1.3,2.6 2.6,2.6 4.8,0 9.1,3 10.7,7.5 l 7.7,17.9 c -1.9,-0.6 -3.8,-0.9 -5.5,-0.9 -8.8,0 -16.3,6.5 -17.6,15.2 H 35.5 C 34.2,50.9 26.7,44.4 17.9,44.4 c -1.9,0 -3.7,0.3 -5.8,0.9 l 7.7,-18.1 c 1.6,-4.4 5.9,-7.3 10.7,-7.3 1.4,0 2.6,-1.3 2.6,-2.6 0,-1.4 -1.3,-2.6 -2.6,-2.6 -6.8,0 -13.1,4.3 -15.5,10.7 l -10.7,25 v 0.2 C 1.5,54.1 0,58.1 0,62.2 0,72 8,80 17.8,80 26.6,80 34.1,73.5 35.4,64.8 h 9.1 C 45.8,73.5 53.3,80 62.1,80 71.9,80 79.9,72 79.9,62.2 80,58 78.5,53.9 75.7,50.6 Z m -1,11.6 c 0,6.9 -5.6,12.6 -12.6,12.6 -7,0 -12.6,-5.6 -12.6,-12.6 0,-7 5.6,-12.6 12.6,-12.6 7,0 12.6,5.6 12.6,12.6 z m -44.2,0 c 0,6.9 -5.6,12.6 -12.6,12.6 -7,0 -12.6,-5.7 -12.6,-12.6 0,-6.9 5.6,-12.6 12.6,-12.6 7,0 12.6,5.6 12.6,12.6 z"
     id="path2"
     inkscape:connector-curvature="0" /></svg>