<?xml version="1.0" encoding="utf-8"?>
<!-- Generator: Adobe Illustrator 20.1.0, SVG Export Plug-In . SVG Version: 6.00 Build 0)  -->
<svg version="1.1" id="Layer_1" xmlns="http://www.w3.org/2000/svg" xmlns:xlink="http://www.w3.org/1999/xlink" x="0px" y="0px"
	 viewBox="0 0 72.5 59.5" style="enable-background:new 0 0 72.5 59.5;" xml:space="preserve">
<style type="text/css">
	.st0{stroke:#000000;stroke-width:0.5;stroke-miterlimit:10;}
</style>
<path class="st0" d="M67.7,32.7C67.7,32.7,67.7,32.7,67.7,32.7L58,10.2c-2.1-5.7-7.7-9.5-13.7-9.5c-1.1,0-2.1,1-2.1,2.1
	c0,1.1,1,2.1,2.1,2.1c4.3,0,8.3,2.7,9.8,6.9l7.1,16.5c-1.7-0.6-3.5-1-5.4-1c-8,0-14.5,5.9-15.5,13.6h-8.6c-1-7.7-7.6-13.6-15.5-13.6
	c-2,0-3.8,0.4-5.6,1l7.1-16.7c1.5-4.1,5.5-6.7,9.8-6.7c1.1,0,2.1-1,2.1-2.1c0-1.1-1-2.1-2.1-2.1c-6,0-11.5,3.8-13.6,9.4L4.3,32.5
	c0,0.1,0,0.1,0,0.2C2,35.5,0.5,39,0.5,42.9c0,8.7,7,15.7,15.7,15.7c8,0,14.5-5.9,15.5-13.6h8.6c1,7.7,7.6,13.6,15.5,13.6
	c8.7,0,15.7-7,15.7-15.7C71.5,39,70,35.4,67.7,32.7z M16.2,54.4c-6.3,0-11.5-5.2-11.5-11.5s5.2-11.5,11.5-11.5s11.5,5.2,11.5,11.5
	S22.5,54.4,16.2,54.4z M55.8,54.4c-6.3,0-11.5-5.2-11.5-11.5s5.2-11.5,11.5-11.5s11.5,5.2,11.5,11.5S62.1,54.4,55.8,54.4z"/>
</svg>
