<?xml version="1.0" encoding="UTF-8" standalone="no"?>
<!-- Generator: Adobe Illustrator 20.1.0, SVG Export Plug-In . SVG Version: 6.00 Build 0)  -->

<svg
   xmlns:dc="http://purl.org/dc/elements/1.1/"
   xmlns:cc="http://creativecommons.org/ns#"
   xmlns:rdf="http://www.w3.org/1999/02/22-rdf-syntax-ns#"
   xmlns:svg="http://www.w3.org/2000/svg"
   xmlns="http://www.w3.org/2000/svg"
   xmlns:sodipodi="http://sodipodi.sourceforge.net/DTD/sodipodi-0.dtd"
   xmlns:inkscape="http://www.inkscape.org/namespaces/inkscape"
   version="1.1"
   id="Layer_1"
   x="0px"
   y="0px"
   viewBox="0 0 72.5 59.5"
   xml:space="preserve"
   sodipodi:docname="Saved_action_item.svg"
   style="enable-background:new 0 0 72.5 59.5;"
   inkscape:version="0.92.2 5c3e80d, 2017-08-06"><metadata
     id="metadata11"><rdf:RDF><cc:Work
         rdf:about=""><dc:format>image/svg+xml</dc:format><dc:type
           rdf:resource="http://purl.org/dc/dcmitype/StillImage" /><dc:title></dc:title></cc:Work></rdf:RDF></metadata><defs
     id="defs9" /><sodipodi:namedview
     pagecolor="#ffffff"
     bordercolor="#666666"
     borderopacity="1"
     objecttolerance="10"
     gridtolerance="10"
     guidetolerance="10"
     inkscape:pageopacity="0"
     inkscape:pageshadow="2"
     inkscape:window-width="1920"
     inkscape:window-height="1008"
     id="namedview7"
     showgrid="false"
     inkscape:zoom="3.9663866"
     inkscape:cx="36.071429"
     inkscape:cy="12.285713"
     inkscape:window-x="0"
     inkscape:window-y="26"
     inkscape:window-maximized="1"
     inkscape:current-layer="Layer_1"
     scale-x="1.4"
     inkscape:pagecheckerboard="true" /><style
     type="text/css"
     id="style2">
	.st0{stroke:#000000;stroke-width:0.5;stroke-miterlimit:10;}
</style><path
     class="st0"
     d="m 63.195,32.3425 c 0,0 0,0 0,0 L 54.95,13.2175 c -1.785,-4.845 -6.545,-8.075 -11.645,-8.075 -0.935,0 -1.785,0.85 -1.785,1.785 0,0.935 0.85,1.785 1.785,1.785 3.655,0 7.055,2.295 8.33,5.865 l 6.035,14.025 c -1.445,-0.51 -2.975,-0.85 -4.59,-0.85 -6.8,0 -12.325,5.015 -13.175,11.56 h -7.31 c -0.85,-6.545 -6.46,-11.56 -13.175,-11.56 -1.7,0 -3.23,0.34 -4.76,0.85 l 6.035,-14.195 c 1.275,-3.485 4.675,-5.695 8.33,-5.695 0.935,0 1.785,-0.85 1.785,-1.785 0,-0.935 -0.85,-1.785 -1.785,-1.785 -5.1,0 -9.775,3.23 -11.56,7.99 l -8.16,19.04 c 0,0.085 0,0.085 0,0.17 -1.955,2.38 -3.23,5.355 -3.23,8.67 0,7.395 5.95,13.345 13.345,13.345 6.8,0 12.325,-5.015 13.175,-11.56 h 7.31 c 0.85,6.545 6.46,11.56 13.175,11.56 7.395,0 13.345,-5.95 13.345,-13.345 0,-3.315 -1.275,-6.375 -3.23,-8.67 z M 19.42,50.7875 c -5.355,0 -9.775,-4.42 -9.775,-9.775 0,-5.355 4.42,-9.775 9.775,-9.775 5.355,0 9.775,4.42 9.775,9.775 0,5.355 -4.42,9.775 -9.775,9.775 z m 33.66,0 c -5.355,0 -9.775,-4.42 -9.775,-9.775 0,-5.355 4.42,-9.775 9.775,-9.775 5.355,0 9.775,4.42 9.775,9.775 0,5.355 -4.42,9.775 -9.775,9.775 z"
     id="path4"
     style="fill:#ffffff;fill-opacity:1;stroke:#ffffff;stroke-width:0.42500001;stroke-miterlimit:10;stroke-opacity:1"
     inkscape:connector-curvature="0" /></svg>