<?xml version="1.0" encoding="UTF-8" standalone="no"?>
<!-- Generator: Adobe Illustrator 22.0.1, SVG Export Plug-In . SVG Version: 6.00 Build 0)  -->

<svg
   xmlns:dc="http://purl.org/dc/elements/1.1/"
   xmlns:cc="http://creativecommons.org/ns#"
   xmlns:rdf="http://www.w3.org/1999/02/22-rdf-syntax-ns#"
   xmlns:svg="http://www.w3.org/2000/svg"
   xmlns="http://www.w3.org/2000/svg"
   xmlns:sodipodi="http://sodipodi.sourceforge.net/DTD/sodipodi-0.dtd"
   xmlns:inkscape="http://www.inkscape.org/namespaces/inkscape"
   version="1.1"
   id="Layer_1"
   x="0px"
   y="0px"
   viewBox="0 0 80 80"
   style="enable-background:new 0 0 80 80;"
   xml:space="preserve"
   sodipodi:docname="Source.svg"
   inkscape:export-filename="/media/data/coding/Android/self/DeepThought/DeepThoughtAndroidApp/src/main/res/drawable-mdpi/ic_tab_sources.png"
   inkscape:export-xdpi="28.799999"
   inkscape:export-ydpi="28.799999"
   inkscape:version="0.92.2 5c3e80d, 2017-08-06"><metadata
     id="metadata11"><rdf:RDF><cc:Work
         rdf:about=""><dc:format>image/svg+xml</dc:format><dc:type
           rdf:resource="http://purl.org/dc/dcmitype/StillImage" /></cc:Work></rdf:RDF></metadata><defs
     id="defs9" /><sodipodi:namedview
     pagecolor="#ffffff"
     bordercolor="#666666"
     borderopacity="1"
     objecttolerance="10"
     gridtolerance="10"
     guidetolerance="10"
     inkscape:pageopacity="0"
     inkscape:pageshadow="2"
     inkscape:window-width="1920"
     inkscape:window-height="1008"
     id="namedview7"
     showgrid="false"
     inkscape:zoom="5.9"
     inkscape:cx="70.548096"
     inkscape:cy="50.469269"
     inkscape:window-x="0"
     inkscape:window-y="26"
     inkscape:window-maximized="1"
     inkscape:current-layer="Layer_1" /><g
     id="g4"
     transform="translate(8.7,0.05)"><path
       d="m 53.8,10.8 c 0,-3.2 1.7,-4.8 5.1,-4.9 h 2.5 V 0.5 H 11.7 C 10.5,0.5 6.4,0.7 3.5,3.4 1.7,5.1 0.8,7.4 0.7,10 v 0.2 H 0.4 v 58.2 c 0,6.1 4.9,11 11,11 H 62.2 V 15.8 H 59 c -0.5,0 -5.2,-0.2 -5.2,-5 z M 7.3,7.3 C 8.6,6 10.7,5.9 11.6,5.9 h 37.8 l -0.2,0.4 c -0.6,1.4 -0.9,2.9 -0.9,4.6 0,1.6 0.3,3.2 0.9,4.6 l 0.2,0.4 H 11.6 c -0.3,0 -3,0 -4.4,-1.5 C 6.4,13.4 6,12.4 6,10.8 6.1,9.2 6.5,8.1 7.3,7.3 Z m 33.4,13.9 v 13.7 l -4.4,-3.6 -5.5,4 V 21.2 Z M 56.9,73.9 H 11.5 C 8.4,73.9 6,71.4 6,68.4 V 19.8 L 6.3,20 c 2.5,1.1 5.1,1.2 5.4,1.2 H 25.4 V 46 l 10.8,-7.9 10.1,8.3 V 21.2 H 57 v 52.7 z"
       id="path2"
       inkscape:connector-curvature="0" /></g></svg>