<?xml version="1.0" encoding="utf-8"?>
<!-- Generator: Adobe Illustrator 20.1.0, SVG Export Plug-In . SVG Version: 6.00 Build 0)  -->
<svg version="1.1" id="Layer_1" xmlns="http://www.w3.org/2000/svg" xmlns:xlink="http://www.w3.org/1999/xlink" x="0px" y="0px"
	 viewBox="0 0 75 95.3" style="enable-background:new 0 0 75 95.3;" xml:space="preserve">
<path d="M70,19.3L70,19.3c-1,0-5.8-0.3-5.8-5.5c0-3.5,1.8-5.3,5.7-5.4c0.2,0,2,0,2.2,0h1v-7l-58.5,0c-1,0-6.2,0.1-9.8,3.5
	c-2.1,2-3.3,4.7-3.4,7.9H1.1v68.4c0,7.3,5.9,13.2,13.2,13.2h59.8V19.3H70z M48.3,41.3l-4.9-4l-6.1,4.5V26.2h11V41.3z M30.3,26.2
	v29.4l12.9-9.5l12.1,10V26.2h11.9v61.1H14.3c-3.4,0-6.2-2.8-6.2-6.2V24.8c2.9,1.3,5.8,1.4,6.4,1.4L30.3,26.2z M9.6,9.9
	c1.6-1.6,4.4-1.6,4.8-1.6c0,0,0,0,0,0l43.8,0c-0.7,1.6-1.1,3.4-1.1,5.5c0,2,0.4,3.9,1.1,5.5l-43.7,0c-0.5,0-3.4-0.1-5-1.7
	c-0.9-0.9-1.3-2.1-1.3-3.8C8.3,12,8.7,10.8,9.6,9.9z"/>
</svg>
