<?xml version="1.0" encoding="utf-8"?>
<!-- Generator: Adobe Illustrator 22.0.1, SVG Export Plug-In . SVG Version: 6.00 Build 0)  -->
<svg version="1.1" id="Layer_1" xmlns="http://www.w3.org/2000/svg" xmlns:xlink="http://www.w3.org/1999/xlink" x="0px" y="0px"
	 viewBox="0 0 80 80" style="enable-background:new 0 0 80 80;" xml:space="preserve">
<g>
	<path d="M75.8,37.1L42.3,3.6c-2-2-4.7-3.2-7.6-3.3H9.3c-2.5,0-4.7,1-6.3,2.7C1.2,4.7,0.2,7.1,0.2,9.4v25.3c0.1,2.9,1.3,5.7,3.3,7.7
		L37,75.9c2.5,2.5,5.8,3.9,9.4,3.9c3.3,0,6.5-1.3,8.7-3.6l21-21c2.4-2.4,3.7-5.6,3.6-9C79.5,42.8,78.1,39.5,75.8,37.1z M72.3,51.5
		l-21,21c-1.4,1.4-3.1,2-4.9,2c-1.9,0-4-0.8-5.6-2.4L7.3,38.7c-1.1-1.1-1.7-2.6-1.7-4V9.5c0-1.1,0.3-1.9,1.1-2.7l0.1-0.1
		c0.9-0.6,1.7-1,2.6-1h25.3c1.4,0,2.8,0.6,3.9,1.7L72,40.9C74.9,44,75.1,48.6,72.3,51.5z"/>
	<path d="M23.3,12c-2.9,0-5.8,1.1-8,3.3c-2.2,2.2-3.3,4.9-3.3,8s1.2,5.9,3.3,8c2,2.2,4.9,3.3,8,3.3s5.9-1.2,8.1-3.3
		c4.4-4.4,4.4-11.6,0-16C29.1,13.2,26.2,12,23.3,12z M27.5,27.6L27.5,27.6c-1.2,1.2-2.7,1.8-4.2,1.8c-1.5,0-3-0.5-4.2-1.7
		c-2.4-2.4-2.4-6,0-8.4c1.1-1.1,2.6-1.7,4.2-1.7c1.6,0,3.1,0.6,4.2,1.7C29.7,21.6,29.7,25.2,27.5,27.6z"/>
</g>
</svg>
