<?xml version="1.0" encoding="utf-8"?>
<!-- Generator: Adobe Illustrator 20.1.0, SVG Export Plug-In . SVG Version: 6.00 Build 0)  -->
<svg version="1.1" id="Layer_1" xmlns="http://www.w3.org/2000/svg" xmlns:xlink="http://www.w3.org/1999/xlink" x="0px" y="0px"
	 viewBox="0 0 77.3 76.3" style="enable-background:new 0 0 77.3 76.3;" xml:space="preserve">
<g>
	<path d="M72.8,53.3c5-5,4.8-13.2-0.3-18.3L41.4,3.9c-2.1-2.1-4.9-3.3-7.8-3.4H10l0,0c-2.5,0-4.9,1-6.6,2.8C1.6,5.1,0.6,7.5,0.6,10
		v23.5c0.1,3,1.3,5.8,3.4,7.9l31.1,31.1c2.6,2.6,6,3.9,9.4,3.9c3.2,0,6.4-1.2,8.8-3.6L72.8,53.3z M67.9,48.4L48.4,67.9
		c-2.2,2.2-6,2.1-8.4-0.3L8.9,36.5c-0.8-0.8-1.3-1.9-1.3-3V10.1c0-0.7,0.2-1.3,0.7-1.8c0.5-0.4,1.1-0.7,1.8-0.7l0,0h23.5
		c1,0,2.1,0.5,2.9,1.3L67.6,40C70,42.4,70.1,46.1,67.9,48.4z"/>
	<path d="M31.2,31.1c4.5-4.5,4.5-11.8,0-16.3s-11.8-4.5-16.3,0s-4.5,11.8,0,16.3l0,0c2.2,2.3,5.2,3.4,8.1,3.4S28.9,33.4,31.2,31.1z
		 M26.2,26.2c-1.8,1.8-4.6,1.8-6.4,0c-1.8-1.8-1.8-4.6,0-6.4c0.9-0.9,2-1.3,3.2-1.3s2.3,0.4,3.2,1.3C27.9,21.6,27.9,24.4,26.2,26.2z
		"/>
</g>
</svg>
