<?xml version="1.0" encoding="UTF-8" standalone="no"?>
<svg
   xmlns:dc="http://purl.org/dc/elements/1.1/"
   xmlns:cc="http://creativecommons.org/ns#"
   xmlns:rdf="http://www.w3.org/1999/02/22-rdf-syntax-ns#"
   xmlns:svg="http://www.w3.org/2000/svg"
   xmlns="http://www.w3.org/2000/svg"
   xmlns:sodipodi="http://sodipodi.sourceforge.net/DTD/sodipodi-0.dtd"
   xmlns:inkscape="http://www.inkscape.org/namespaces/inkscape"
   xml:space="preserve"
   style="enable-background:new 0 0 500 500;"
   viewBox="0 0 500 500"
   y="0px"
   x="0px"
   id="Layer_1"
   version="1.1"
   sodipodi:docname="App_Icon_Eule_Stift_single_Items_Icon.svg"
   inkscape:export-filename="/media/data/coding/Android/self/DeepThought/DeepThoughtAndroidApp/src/main/res/drawable-mdpi/ic_tab_item.png"
   inkscape:export-xdpi="4.6100001"
   inkscape:export-ydpi="4.6100001"
   inkscape:version="0.92.2 5c3e80d, 2017-08-06"><sodipodi:namedview
     pagecolor="#ffffff"
     bordercolor="#666666"
     borderopacity="1"
     objecttolerance="10"
     gridtolerance="10"
     guidetolerance="10"
     inkscape:pageopacity="0"
     inkscape:pageshadow="2"
     inkscape:window-width="1920"
     inkscape:window-height="1008"
     id="namedview13"
     showgrid="false"
     inkscape:pagecheckerboard="true"
     inkscape:zoom="0.472"
     inkscape:cx="250"
     inkscape:cy="250"
     inkscape:window-x="0"
     inkscape:window-y="26"
     inkscape:window-maximized="1"
     inkscape:current-layer="Layer_1" /><metadata
     id="metadata23"><rdf:RDF><cc:Work
         rdf:about=""><dc:format>image/svg+xml</dc:format><dc:type
           rdf:resource="http://purl.org/dc/dcmitype/StillImage" /><dc:title></dc:title></cc:Work></rdf:RDF></metadata><defs
     id="defs21" /><style
     id="style2"
     type="text/css">
	.st0{fill:#FFFFFF;}
</style><g
     transform="scale(1.5,1)"
     id="g16"><g
       id="g12"><path
         style="fill:#ffffff"
         id="path4"
         d="m 204.3,81.5 h -14 c -5.6,0 -9.1,2.5 -9.1,8.5 v 13.2 h 11.3 c 5.6,0 11.9,-4.8 11.9,-10.7 v -11 z"
         class="st0" /><path
         style="fill:#ffffff"
         id="path6"
         d="M 118.4,81.5 H 106 v 11 c 0,6.1 4.6,10.7 10.1,10.7 h 11.6 V 90 c -0.1,-6.1 -3.8,-8.5 -9.3,-8.5 z"
         class="st0" /><path
         style="fill:#ffffff"
         id="path8"
         d="m 154.8,0 c -45.2,0 -81.5,39.7 -81.5,88.6 0,2 0.7,3.3 0.7,6.2 v 242.1 3.3 c 0,1 -1.6,24.7 18.7,33.3 5.5,2.3 10.9,3.5 16.1,3.5 5.6,0 10.6,-1.4 14.8,-4.1 8.1,8.7 18.8,13.7 30.2,14 0.4,0 0.7,0 1.2,0 11.1,0 21.7,-4.3 30,-12.4 l 1.3,-1.3 c 4.1,2.5 9,3.8 14.3,3.8 5.2,0 11.4,-1.2 17.1,-3.5 20.3,-8.5 20,-32.3 20,-33 V 335.3 83.2 C 234.7,36.9 198.4,0 154.8,0 Z m -0.5,10.7 c 26.9,0 50.4,15.9 62.7,39.7 -6.9,-5.2 -15.3,-8.2 -24.3,-8.2 -16.8,0 -31.3,10.4 -38.4,25.6 -7.1,-15.2 -21.6,-25.6 -38.4,-25.6 -9,0 -17.4,3 -24.3,8.2 12.5,-23.8 35.9,-39.7 62.7,-39.7 z m -32.4,347.5 c 0,2 -0.9,3.9 -2.9,5.4 -4.3,3.2 -13,4.6 -23.3,0.3 C 82,358.1 82.8,341.5 82.8,340.6 v -2.5 L 82.4,131.3 c 8.8,17.4 23.6,31.1 39.5,38.9 z m 55.2,8.2 c -6.4,6.2 -14.5,9.4 -22.9,9.3 -8.5,-0.3 -16.5,-4.1 -22.6,-10.6 0,0 -0.4,-1 0,-2.6 0,0 1.9,-1.2 1.9,-4.8 0,-3.6 0,-183.9 0,-183.9 5.8,1.7 10.6,2.7 16.5,3.2 4.5,0.4 5.8,0.4 9.7,0 6.1,-0.4 11.9,-1.6 17.7,-3.3 L 177.3,359 c 0.1,2.2 0.6,4.1 1.4,5.9 z m -22.8,-200 c -39.8,0 -71.9,-34.9 -71.9,-77.9 0,-19.7 15.8,-35.7 34.2,-35.7 18.2,0 34.3,16.1 34.3,35.7 v 34.9 h 8.7 V 88.7 h 0.1 c 0,-18.8 14.9,-35.9 33.1,-35.9 18.2,0 33.7,16.1 33.7,35.7 -0.2,43 -32.4,77.9 -72.2,77.9 z m 58.9,197.3 c -10.3,4.3 -19.1,3 -23.6,-0.3 -2.2,-1.6 -3,-3.5 -3,-5.8 l 0.1,-187.8 c 17.1,-8 30.7,-22 39.5,-39.5 L 226,339.8 v 0.9 c 0,0.7 0.9,17.2 -12.8,23 z"
         class="st0" /><path
         style="fill:#ffffff"
         id="path10"
         d="m 217.5,390.9 c -3.3,-2.2 -7.8,-1.2 -10,2.2 l -18.8,29.5 c -24,4.2 -48.2,4.2 -72.2,0 L 97.7,393.1 c -2.2,-3.3 -6.7,-4.3 -10,-2.2 -3.3,2.2 -4.3,6.7 -2.2,10 l 19.4,29.5 c 0,0.1 0,0.1 0.1,0.3 l 0.9,1.3 0.4,0.6 v 0 l 46.3,67.4 47.8,-69.3 c 0.1,-0.1 0.1,-0.3 0.3,-0.6 l 19.1,-29.2 c 2.1,-3.4 1.2,-7.8 -2.3,-10 z m -39.2,51.4 -25.6,37.2 -25.6,-37.2 c -1.9,-2.7 0.3,-6.4 3.5,-5.9 14.8,1.4 29.5,1.4 44.1,0 3.3,-0.4 5.5,3.3 3.6,5.9 z"
         class="st0" /></g><path
       style="fill:#ffffff"
       id="path14"
       d="M 3.2,499.9 H 152.8 V 487.7 H 3.2 c -1.7,0 -3.2,1.4 -3.2,3.2 v 5.9 c 0.1,1.8 1.4,3.1 3.2,3.1 z"
       class="st0" /></g></svg>