<?xml version="1.0" encoding="utf-8"?>
<!-- Generator: Adobe Illustrator 20.1.0, SVG Export Plug-In . SVG Version: 6.00 Build 0)  -->
<svg version="1.1" id="Layer_1" xmlns="http://www.w3.org/2000/svg" xmlns:xlink="http://www.w3.org/1999/xlink" x="0px" y="0px"
	 viewBox="0 0 500 500" style="enable-background:new 0 0 500 500;" xml:space="preserve">
<style type="text/css">
	.st0{fill:#078176;}
	.st1{fill:#FFFFFF;}
</style>
<g>
	<circle class="st0" cx="250.5" cy="250.5" r="250"/>
	<g>
		<g>
			<path class="st1" d="M282,115h-9.7c-3.9,0-6.3,1.7-6.3,5.9v9.1h7.8c3.9,0,8.2-3.3,8.2-7.4V115z"/>
			<path class="st1" d="M222.6,115H214v7.6c0,4.2,3.2,7.4,7,7.4h8v-9.1C229,116.7,226.4,115,222.6,115z"/>
			<path class="st1" d="M247.8,58.7c-31.2,0-56.3,27.4-56.3,61.2c0,1.4,0.5,2.3,0.5,4.3v167.3v2.3c0,0.7-1.1,17.1,12.9,23
				c3.8,1.6,7.5,2.4,11.1,2.4c3.9,0,7.3-1,10.2-2.8c5.6,6,13,9.5,20.9,9.7c0.3,0,0.5,0,0.8,0c7.7,0,15-3,20.7-8.6l0.9-0.9
				c2.8,1.7,6.2,2.6,9.9,2.6c3.6,0,7.9-0.8,11.8-2.4c14-5.9,13.8-22.3,13.8-22.8v-3.6V116.2C303,84.2,277.9,58.7,247.8,58.7z
				 M247.4,66.1c18.6,0,34.8,11,43.3,27.4c-4.8-3.6-10.6-5.7-16.8-5.7c-11.6,0-21.6,7.2-26.5,17.7c-4.9-10.5-14.9-17.7-26.5-17.7
				c-6.2,0-12,2.1-16.8,5.7C212.7,77.1,228.9,66.1,247.4,66.1z M225,306.2c0,1.4-0.6,2.7-2,3.7c-3,2.2-9,3.2-16.1,0.2
				c-9.5-4-8.9-15.5-8.9-16.1v-1.7l-0.3-142.9c6.1,12,16.3,21.5,27.3,26.9V306.2z M263.2,311.9c-4.4,4.3-10,6.5-15.8,6.4
				c-5.9-0.2-11.4-2.8-15.6-7.3c0,0-0.3-0.7,0-1.8c0,0,1.3-0.8,1.3-3.3c0-2.5,0-127.1,0-127.1c4,1.2,7.3,1.9,11.4,2.2
				c3.1,0.3,4,0.3,6.7,0c4.2-0.3,8.2-1.1,12.2-2.3l-0.1,128.1c0.1,1.5,0.4,2.8,1,4.1L263.2,311.9z M247.4,173.7
				c-27.5,0-49.7-24.1-49.7-53.8c0-13.6,10.9-24.7,23.6-24.7c12.6,0,23.7,11.1,23.7,24.7V144h6v-24h0.1c0-13,10.3-24.8,22.9-24.8
				c12.6,0,23.3,11.1,23.3,24.7C297.2,149.6,274.9,173.7,247.4,173.7z M288.1,310c-7.1,3-13.2,2.1-16.3-0.2c-1.5-1.1-2.1-2.4-2.1-4
				l0.1-129.8c11.8-5.5,21.2-15.2,27.3-27.3L297,293.5v0.6C297,294.6,297.6,306,288.1,310z"/>
			<path class="st1" d="M291.1,328.8c-2.3-1.5-5.4-0.8-6.9,1.5l-13,20.4c-16.6,2.9-33.3,2.9-49.9,0l-13-20.4c-1.5-2.3-4.6-3-6.9-1.5
				c-2.3,1.5-3,4.6-1.5,6.9l13.4,20.4c0,0.1,0,0.1,0.1,0.2l0.6,0.9l0.3,0.4l0,0l32,46.6l33-47.9c0.1-0.1,0.1-0.2,0.2-0.4l13.2-20.2
				C294.1,333.4,293.5,330.3,291.1,328.8z M264,364.3l-17.7,25.7l-17.7-25.7c-1.3-1.9,0.2-4.4,2.4-4.1c10.2,1,20.4,1,30.5,0
				C263.8,360,265.3,362.5,264,364.3z"/>
		</g>
		<path class="st1" d="M143,404.1h103.4v-8.4H143c-1.2,0-2.2,1-2.2,2.2v4.1C140.9,403.2,141.8,404.1,143,404.1z"/>
	</g>
</g>
</svg>
