<?xml version="1.0" encoding="utf-8"?>
<!-- Generator: Adobe Illustrator 20.1.0, SVG Export Plug-In . SVG Version: 6.00 Build 0)  -->
<svg version="1.1" id="Layer_1" xmlns="http://www.w3.org/2000/svg" xmlns:xlink="http://www.w3.org/1999/xlink" x="0px" y="0px"
	 viewBox="0 0 500 500" style="enable-background:new 0 0 500 500;" xml:space="preserve">
<style type="text/css">
	.st0{fill:#078176;}
	.st1{opacity:0.2;}
	.st2{fill:#FFFFFF;}
</style>
<g>
	<circle class="st0" cx="250" cy="250" r="250"/>
	<g>
		<g class="st1">
			
				<rect x="242.9" y="145" transform="matrix(1 -6.102425e-03 6.102425e-03 1 -1.0623 1.5507)" class="st2" width="21.4" height="59.7"/>
		</g>
		<g class="st1">
			
				<rect x="310.8" y="271.8" transform="matrix(0.5706 -0.8212 0.8212 0.5706 -112.4573 395.0101)" class="st2" width="21.4" height="66.4"/>
		</g>
		<g>
			<path class="st2" d="M370.8,387.7c-8.5,0-16.9-2.5-24.1-7.4c-19.8-13.3-25.1-40.3-11.7-60.1c6.5-9.6,16.3-16.1,27.6-18.3
				c11.4-2.2,22.9,0.1,32.5,6.6c19.8,13.3,25.1,40.3,11.7,60.1c-6.5,9.6-16.3,16.1-27.6,18.3C376.4,387.4,373.6,387.7,370.8,387.7z
				 M370.9,318.8c-1.6,0-3.3,0.2-4.9,0.5c-6.7,1.3-12.5,5.1-16.3,10.8c-7.9,11.7-4.8,27.6,6.9,35.4c5.7,3.8,12.5,5.2,19.1,3.9
				c6.7-1.3,12.5-5.1,16.3-10.8c7.9-11.7,4.8-27.6-6.9-35.4C380.9,320.3,376,318.8,370.9,318.8z"/>
		</g>
		<g class="st1">
			
				<rect x="146" y="299.1" transform="matrix(0.8213 -0.5706 0.5706 0.8213 -144.7914 157.4132)" class="st2" width="65.7" height="21.4"/>
		</g>
		<g>
			<path class="st2" d="M125.3,387.8c-13.9,0-27.7-6.7-36-19.1l0,0c-13.3-19.8-8.1-46.8,11.7-60.2c19.8-13.3,46.8-8.1,60.1,11.7
				c6.5,9.6,8.8,21.1,6.6,32.5c-2.2,11.4-8.7,21.2-18.3,27.6C142,385.4,133.6,387.8,125.3,387.8z M104,358.7
				c7.9,11.7,23.8,14.8,35.4,6.9c5.7-3.8,9.5-9.6,10.8-16.3c1.3-6.7-0.1-13.5-3.9-19.1c-7.9-11.7-23.8-14.8-35.4-6.9
				C99.3,331.1,96.2,347,104,358.7L104,358.7z"/>
		</g>
		<g>
			<path class="st2" d="M253.8,148.1c-9.7,0-19.4-3.2-27.4-9.8c-9-7.3-14.5-17.7-15.7-29.2c-1.2-11.5,2.3-22.8,9.6-31.8
				c7.3-9,17.7-14.5,29.2-15.7c11.5-1.2,22.8,2.2,31.8,9.6c9,7.3,14.5,17.7,15.7,29.2c1.2,11.5-2.3,22.8-9.6,31.8h0
				C278.8,142.7,266.3,148.1,253.8,148.1z M253.9,79.3c-0.9,0-1.7,0-2.6,0.1c-6.8,0.7-12.9,4-17.2,9.2c-4.3,5.3-6.3,11.9-5.6,18.7
				c0.7,6.8,4,12.9,9.2,17.2c10.9,8.9,27,7.3,35.9-3.6h0c4.3-5.3,6.3-11.9,5.6-18.7c-0.7-6.8-4-12.9-9.2-17.2
				C265.4,81.3,259.7,79.3,253.9,79.3z"/>
		</g>
		<g>
			<g>
				<g>
					<path class="st2" d="M183.3,261.8c3.2-12.7,13.3-19.8,22.3-27.9c16-14.3,32.1-28.5,48-42.9c3.1-2.8,6-3.5,9.8-2.2
						c21.1,7.3,42.2,14.4,63.3,21.8c6.1,2.1,7.1,6.8,2.3,11.2c-21.2,19.6-42.4,39.2-63.6,58.8c-2.8,2.6-5.6,2.6-9,1.2
						c-16.3-6.7-32.6-13.4-48.9-20.1c-10.1-4.2-14.9-0.9-14.4,10.1c0.3,6.3,3.1,10.8,9.2,13.3c17.9,7.4,35.8,15,53.7,22.6
						c2.2,1,3.7,0.9,5.7-0.9c16.9-16.5,34-32.8,51-49.2c1.9-1.8,2.8-3.6,2.9-6.5c0.2-3.8,1.4-7.7,2.8-11.4c1.1-2.9,4.4-3.9,6.9-2.7
						c2.8,1.4,3.8,3.9,2.8,6.6c-1.6,4.1-1.7,8.1-1.5,12.3c0.1,1.9-1.3,4.4-2.8,5.8c-18.4,17.9-36.9,35.7-55.3,53.5
						c-0.9,0.9-1.9,1.8-2.8,2.8c-2.7,2.7-5.7,3.1-9.2,1.6c-16.1-6.9-32.2-13.6-48.4-20.4c-3.4-1.4-6.8-3-10.3-4.3
						c-8.6-3.4-13.3-9.8-15.2-18.6c-0.1-0.6-0.3-4-0.1-7.6C182.7,265.5,183.3,261.9,183.3,261.8z M287.7,234c4.4,1,6.7-1.4,9-3.7
						c3.9-3.7,3.6-5-1.4-6.8c-11.5-4.2-23-8.2-34.4-12.6c-5.3-2.1-9.3-1.6-13.1,2.8c-3,3.5-3.1,4.6,1.4,6.2
						c12.3,4.6,24.7,9,37.1,13.6C287,233.7,287.6,233.9,287.7,234z"/>
				</g>
			</g>
		</g>
	</g>
</g>
</svg>
