<?xml version="1.0" encoding="utf-8"?>
<!-- Generator: Adobe Illustrator 20.1.0, SVG Export Plug-In . SVG Version: 6.00 Build 0)  -->
<svg version="1.1" id="Layer_1" xmlns="http://www.w3.org/2000/svg" xmlns:xlink="http://www.w3.org/1999/xlink" x="0px" y="0px"
	 viewBox="0 0 500 500" style="enable-background:new 0 0 500 500;" xml:space="preserve">
<style type="text/css">
	.st0{fill:#FFFFFF;}
</style>
<g>
	<path class="st0" d="M11.4,500h161.9c96.6,0,175.2-78.6,175.2-175.2V163.5C343.1,72.5,266.5,0,174,0C78.1,0,0,78.1,0,174
		c0,4.1,0.2,8.1,0.5,12.2V500H11v0C11.1,500,11.2,500,11.4,500z M327.5,324.8c0,85-69.2,154.2-154.2,154.2H94.1
		c48.4-26.2,83.1-74.5,90.6-131.3c61.9-3.7,115.1-39.9,142.9-91.8V324.8z M21.5,478.6V257.7c28,50.9,80.8,86.4,142,90.1
		C152.9,418.5,93.9,473.7,21.5,478.6z M174,21c57.1,0,106.9,31.4,133.2,77.8c-14.7-10.1-32.5-16.1-51.7-16.1
		c-35.6,0-66.5,20.5-81.5,50.4c-15.1-29.8-45.9-50.4-81.5-50.4c-19.2,0-37,6-51.7,16.1C67.2,52.4,117,21,174,21z M92.5,103.7
		c38.8,0,71.5,31.6,71.5,70.3v68.6h21V174h0.2c0-38.8,31.6-70.3,70.3-70.3c38.8,0,71.5,31.6,71.5,70.3c0,84.4-68.7,153-153,153
		S21,258.4,21,174C21,135.3,53.7,103.7,92.5,103.7z"/>
	<path class="st0" d="M276.6,181.6v-26.1h-26.1c-11.8,0-21.4,9.6-21.4,21.4V203h26.1C267,203,276.6,193.4,276.6,181.6z"/>
	<path class="st0" d="M92.9,203h26.1v-26.1c0-11.8-9.6-21.4-21.4-21.4H71.5v26.1C71.5,193.4,81.1,203,92.9,203z"/>
</g>
</svg>
