<?xml version="1.0" encoding="utf-8"?>
<!-- Generator: Adobe Illustrator 20.1.0, SVG Export Plug-In . SVG Version: 6.00 Build 0)  -->
<svg version="1.1" id="Layer_1" xmlns="http://www.w3.org/2000/svg" xmlns:xlink="http://www.w3.org/1999/xlink" x="0px" y="0px"
	 viewBox="0 0 500 500" style="enable-background:new 0 0 500 500;" xml:space="preserve">
<style type="text/css">
	.st0{fill:#078176;}
	.st1{fill:#FFFFFF;}
</style>
<circle class="st0" cx="250.5" cy="250.5" r="250"/>
<g>
	<path class="st1" d="M142.5,408.5h107.8c64.3,0,116.7-52.3,116.7-116.7V184.4c-3.6-60.7-54.7-108.9-116.2-108.9
		c-63.9,0-115.9,52-115.9,115.9c0,2.7,0.1,5.4,0.3,8.1v209h7v0C142.3,408.5,142.4,408.5,142.5,408.5z M353.1,291.8
		c0,56.6-46.1,102.7-102.7,102.7h-52.8c32.2-17.4,55.3-49.6,60.3-87.4c41.2-2.5,76.7-26.6,95.2-61.1V291.8z M149.2,394.2V247.1
		c18.7,33.9,53.8,57.5,94.6,60C236.7,354.2,197.5,391,149.2,394.2z M250.8,89.5c38,0,71.2,20.9,88.7,51.8
		c-9.8-6.7-21.6-10.7-34.4-10.7c-23.7,0-44.3,13.7-54.3,33.5c-10-19.9-30.6-33.5-54.3-33.5c-12.8,0-24.6,4-34.4,10.7
		C179.7,110.4,212.9,89.5,250.8,89.5z M196.6,144.6c25.8,0,47.6,21,47.6,46.8v45.7h14v-45.7h0.1c0-25.8,21-46.8,46.8-46.8
		c25.8,0,47.6,21,47.6,46.8c0,56.2-45.7,101.9-101.9,101.9s-101.9-45.7-101.9-101.9C148.9,165.6,170.7,144.6,196.6,144.6z"/>
	<path class="st1" d="M319.1,196.5V179h-17.4c-7.9,0-14.3,6.4-14.3,14.3v17.4h17.4C312.7,210.7,319.1,204.3,319.1,196.5z"/>
	<path class="st1" d="M196.8,210.7h17.4v-17.4c0-7.9-6.4-14.3-14.3-14.3h-17.4v17.4C182.6,204.3,189,210.7,196.8,210.7z"/>
</g>
</svg>
