<?xml version="1.0" encoding="utf-8"?>
<!-- Generator: Adobe Illustrator 20.1.0, SVG Export Plug-In . SVG Version: 6.00 Build 0)  -->
<svg version="1.1" id="Layer_1" xmlns="http://www.w3.org/2000/svg" xmlns:xlink="http://www.w3.org/1999/xlink" x="0px" y="0px"
	 viewBox="0 0 500 500" style="enable-background:new 0 0 500 500;" xml:space="preserve">
<style type="text/css">
	.st0{opacity:0.2;}
	.st1{fill:#FFFFFF;}
</style>
<g>
	<g class="st0">
		
			<rect x="242.2" y="125.9" transform="matrix(1 -6.102311e-03 6.102311e-03 1 -1.0373 1.5796)" class="st1" width="32.2" height="89.8"/>
	</g>
	<g class="st0">
		
			<rect x="344.3" y="316.7" transform="matrix(0.5706 -0.8212 0.8212 0.5706 -146.3478 453.4316)" class="st1" width="32.2" height="99.9"/>
	</g>
	<g>
		<path class="st1" d="M434.7,491.1c-12.8,0-25.4-3.8-36.3-11.1c-29.8-20-37.8-60.6-17.6-90.4c9.8-14.4,24.5-24.2,41.5-27.5
			c17.2-3.3,34.5,0.2,48.9,9.9c29.8,20,37.8,60.6,17.6,90.4c-9.8,14.4-24.5,24.2-41.5,27.5C443.1,490.6,438.9,491.1,434.7,491.1z
			 M434.8,387.4c-2.4,0-5,0.3-7.4,0.8c-10.1,2-18.8,7.7-24.5,16.3c-11.9,17.6-7.2,41.5,10.4,53.3c8.6,5.7,18.8,7.8,28.7,5.9
			c10.1-2,18.8-7.7,24.5-16.3c11.9-17.6,7.2-41.5-10.4-53.3C449.9,389.6,442.5,387.4,434.8,387.4z"/>
	</g>
	<g class="st0">
		
			<rect x="96.4" y="357.7" transform="matrix(0.8213 -0.5706 0.5706 0.8213 -187.2307 150.0501)" class="st1" width="98.9" height="32.2"/>
	</g>
	<g>
		<path class="st1" d="M65.3,491.2c-20.9,0-41.7-10.1-54.2-28.7l0,0c-20-29.8-12.2-70.4,17.6-90.6c29.8-20,70.4-12.2,90.4,17.6
			c9.8,14.4,13.2,31.8,9.9,48.9s-13.1,31.9-27.5,41.5C90.4,487.6,77.7,491.2,65.3,491.2z M33.2,447.4C45.1,465,69,469.7,86.5,457.8
			c8.6-5.7,14.3-14.4,16.3-24.5c2-10.1-0.2-20.3-5.9-28.7C85,386.9,61,382.3,43.6,394.2C26.1,405.9,21.5,429.8,33.2,447.4
			L33.2,447.4z"/>
	</g>
	<g>
		<path class="st1" d="M258.6,130.5c-14.6,0-29.2-4.8-41.2-14.7c-13.5-11-21.8-26.6-23.6-43.9c-1.8-17.3,3.5-34.3,14.4-47.9
			s26.6-21.8,43.9-23.6s34.3,3.3,47.9,14.4c13.5,11,21.8,26.6,23.6,43.9c1.8,17.3-3.5,34.3-14.4,47.9l0,0
			C296.2,122.4,277.4,130.5,258.6,130.5z M258.8,27c-1.4,0-2.6,0-3.9,0.2c-10.2,1.1-19.4,6-25.9,13.8c-6.5,8-9.5,17.9-8.4,28.1
			c1.1,10.2,6,19.4,13.8,25.9c16.4,13.4,40.6,11,54-5.4l0,0c6.5-8,9.5-17.9,8.4-28.1c-1.1-10.2-6-19.4-13.8-25.9
			C276.1,30,267.5,27,258.8,27z"/>
	</g>
	<g>
		<g>
			<g>
				<path class="st1" d="M152.5,301.6c4.8-19.1,20-29.8,33.6-42c24.1-21.5,48.3-42.9,72.2-64.6c4.7-4.2,9-5.3,14.7-3.3
					c31.8,11,63.5,21.7,95.3,32.8c9.2,3.2,10.7,10.2,3.5,16.9c-31.9,29.5-63.8,59-95.7,88.5c-4.2,3.9-8.4,3.9-13.5,1.8
					c-24.5-10.1-49.1-20.2-73.6-30.2c-15.2-6.3-22.4-1.4-21.7,15.2c0.5,9.5,4.7,16.3,13.8,20c26.9,11.1,53.9,22.6,80.8,34
					c3.3,1.5,5.6,1.4,8.6-1.4c25.4-24.8,51.2-49.4,76.7-74c2.9-2.7,4.2-5.4,4.4-9.8c0.3-5.7,2.1-11.6,4.2-17.2
					c1.7-4.4,6.6-5.9,10.4-4.1c4.2,2.1,5.7,5.9,4.2,9.9c-2.4,6.2-2.6,12.2-2.3,18.5c0.2,2.9-2,6.6-4.2,8.7
					c-27.7,26.9-55.5,53.7-83.2,80.5c-1.4,1.4-2.9,2.7-4.2,4.2c-4.1,4.1-8.6,4.7-13.8,2.4c-24.2-10.4-48.5-20.5-72.8-30.7
					c-5.1-2.1-10.2-4.5-15.5-6.5c-12.9-5.1-20-14.7-22.9-28c-0.2-0.9-0.5-6-0.2-11.4C151.6,307.2,152.5,301.8,152.5,301.6z
					 M309.6,259.8c6.6,1.5,10.1-2.1,13.5-5.6c5.9-5.6,5.4-7.5-2.1-10.2c-17.3-6.3-34.6-12.3-51.8-19c-8-3.2-14-2.4-19.7,4.2
					c-4.5,5.3-4.7,6.9,2.1,9.3c18.5,6.9,37.2,13.5,55.8,20.5C308.6,259.3,309.5,259.6,309.6,259.8z"/>
			</g>
		</g>
	</g>
</g>
</svg>
