<?xml version="1.0" encoding="utf-8"?>
<!-- Generator: Adobe Illustrator 20.1.0, SVG Export Plug-In . SVG Version: 6.00 Build 0)  -->
<svg version="1.1" id="Layer_1" xmlns="http://www.w3.org/2000/svg" xmlns:xlink="http://www.w3.org/1999/xlink" x="0px" y="0px"
	 viewBox="0 0 500 500" style="enable-background:new 0 0 500 500;" xml:space="preserve">
<style type="text/css">
	.st0{fill:#FFFFFF;}
</style>
<g>
	<g>
		<path class="st0" d="M204.3,81.5h-14c-5.6,0-9.1,2.5-9.1,8.5v13.2h11.3c5.6,0,11.9-4.8,11.9-10.7V81.5z"/>
		<path class="st0" d="M118.4,81.5h-12.4v11c0,6.1,4.6,10.7,10.1,10.7h11.6V90C127.6,83.9,123.9,81.5,118.4,81.5z"/>
		<path class="st0" d="M154.8,0c-45.2,0-81.5,39.7-81.5,88.6c0,2,0.7,3.3,0.7,6.2v242.1v3.3c0,1-1.6,24.7,18.7,33.3
			c5.5,2.3,10.9,3.5,16.1,3.5c5.6,0,10.6-1.4,14.8-4.1c8.1,8.7,18.8,13.7,30.2,14c0.4,0,0.7,0,1.2,0c11.1,0,21.7-4.3,30-12.4
			l1.3-1.3c4.1,2.5,9,3.8,14.3,3.8c5.2,0,11.4-1.2,17.1-3.5c20.3-8.5,20-32.3,20-33v-5.2V83.2C234.7,36.9,198.4,0,154.8,0z
			 M154.3,10.7c26.9,0,50.4,15.9,62.7,39.7c-6.9-5.2-15.3-8.2-24.3-8.2c-16.8,0-31.3,10.4-38.4,25.6c-7.1-15.2-21.6-25.6-38.4-25.6
			c-9,0-17.4,3-24.3,8.2C104.1,26.6,127.5,10.7,154.3,10.7z M121.9,358.2c0,2-0.9,3.9-2.9,5.4c-4.3,3.2-13,4.6-23.3,0.3
			c-13.7-5.8-12.9-22.4-12.9-23.3v-2.5l-0.4-206.8c8.8,17.4,23.6,31.1,39.5,38.9V358.2z M177.1,366.4c-6.4,6.2-14.5,9.4-22.9,9.3
			c-8.5-0.3-16.5-4.1-22.6-10.6c0,0-0.4-1,0-2.6c0,0,1.9-1.2,1.9-4.8s0-183.9,0-183.9c5.8,1.7,10.6,2.7,16.5,3.2
			c4.5,0.4,5.8,0.4,9.7,0c6.1-0.4,11.9-1.6,17.7-3.3L177.3,359c0.1,2.2,0.6,4.1,1.4,5.9L177.1,366.4z M154.3,166.4
			c-39.8,0-71.9-34.9-71.9-77.9c0-19.7,15.8-35.7,34.2-35.7c18.2,0,34.3,16.1,34.3,35.7v34.9h8.7V88.7h0.1
			c0-18.8,14.9-35.9,33.1-35.9s33.7,16.1,33.7,35.7C226.3,131.5,194.1,166.4,154.3,166.4z M213.2,363.7c-10.3,4.3-19.1,3-23.6-0.3
			c-2.2-1.6-3-3.5-3-5.8l0.1-187.8c17.1-8,30.7-22,39.5-39.5L226,339.8v0.9C226,341.4,226.9,357.9,213.2,363.7z"/>
		<path class="st0" d="M217.5,390.9c-3.3-2.2-7.8-1.2-10,2.2l-18.8,29.5c-24,4.2-48.2,4.2-72.2,0l-18.8-29.5
			c-2.2-3.3-6.7-4.3-10-2.2c-3.3,2.2-4.3,6.7-2.2,10l19.4,29.5c0,0.1,0,0.1,0.1,0.3l0.9,1.3l0.4,0.6l0,0l46.3,67.4l47.8-69.3
			c0.1-0.1,0.1-0.3,0.3-0.6l19.1-29.2C221.9,397.5,221,393.1,217.5,390.9z M178.3,442.3l-25.6,37.2l-25.6-37.2
			c-1.9-2.7,0.3-6.4,3.5-5.9c14.8,1.4,29.5,1.4,44.1,0C178,436,180.2,439.7,178.3,442.3z"/>
	</g>
	<path class="st0" d="M3.2,499.9h149.6v-12.2H3.2c-1.7,0-3.2,1.4-3.2,3.2v5.9C0.1,498.6,1.4,499.9,3.2,499.9z"/>
</g>
</svg>
